<?xml version="1.0" standalone="no"?>
<!DOCTYPE svg PUBLIC "-//W3C//DTD SVG 20010904//EN"
 "http://www.w3.org/TR/2001/REC-SVG-20010904/DTD/svg10.dtd">
<svg version="1.0" xmlns="http://www.w3.org/2000/svg"
 width="688.000000pt" height="85.000000pt" viewBox="0 0 688.000000 85.000000"
 preserveAspectRatio="xMidYMid meet">
<metadata>
Created by potrace 1.13, written by Peter Selinger 2001-2015
</metadata>
<g transform="translate(0.000000,85.000000) scale(0.100000,-0.100000)"
fill="#000000" stroke="none">
<path d="M780 515 l0 -325 116 0 c133 0 169 12 211 67 20 26 28 50 31 93 5 71
-9 118 -48 155 l-29 28 34 38 c56 62 59 149 8 210 -41 49 -78 59 -208 59
l-115 0 0 -325z m271 237 c23 -26 29 -42 29 -78 0 -89 -36 -114 -165 -114
l-85 0 0 116 0 116 96 -4 c94 -3 96 -4 125 -36z m0 -280 c26 -28 29 -40 29
-96 0 -105 -48 -141 -180 -134 l-65 3 -3 133 -3 134 97 -4 c94 -3 96 -4 125
-36z"/>
<path d="M3270 815 c0 -23 3 -24 78 -27 l77 -3 3 -297 2 -298 25 0 25 0 0 300
0 300 80 0 c79 0 80 0 80 25 l0 25 -185 0 -185 0 0 -25z"/>
<path d="M4370 515 l0 -325 180 0 180 0 0 25 0 24 -152 3 -153 3 -3 123 -3
122 126 0 125 0 0 25 0 25 -125 0 -125 0 0 125 0 125 155 0 155 0 0 25 0 25
-180 0 -180 0 0 -325z"/>
<path d="M213 792 c-264 -94 -286 -456 -35 -579 78 -39 193 -40 267 -4 63 32
124 93 156 156 36 75 35 189 -4 267 -31 64 -90 120 -155 150 -63 28 -165 33
-229 10z m287 -297 l0 -55 -185 0 -185 0 0 55 0 55 185 0 185 0 0 -55z"/>
<path d="M6463 792 c-264 -94 -286 -456 -35 -579 78 -39 193 -40 267 -4 63 32
124 93 156 156 36 75 35 189 -4 267 -31 64 -90 120 -155 150 -63 28 -165 33
-229 10z m287 -297 l0 -55 -185 0 -185 0 0 55 0 55 185 0 185 0 0 -55z"/>
<path d="M5298 713 l-3 -58 -42 -3 c-38 -3 -43 -6 -43 -28 0 -22 4 -24 45 -24
l45 0 0 -161 c0 -134 3 -166 17 -190 21 -35 68 -59 117 -59 32 0 36 3 36 25 0
22 -4 25 -34 25 -19 0 -45 9 -60 21 l-26 20 0 160 0 159 60 0 c57 0 60 1 60
25 0 22 -4 24 -57 27 l-58 3 -3 58 c-3 53 -5 57 -27 57 -22 0 -24 -4 -27 -57z"/>
<path d="M1305 641 c-32 -22 -65 -74 -65 -103 0 -12 8 -18 24 -18 18 0 27 8
35 31 15 45 38 58 98 59 67 0 93 -28 93 -101 l0 -49 -65 0 c-120 0 -185 -49
-185 -140 0 -54 25 -97 72 -121 56 -29 109 -21 170 23 14 10 20 8 37 -13 l20
-24 1 198 0 197 -34 37 c-32 35 -38 37 -102 41 -57 2 -74 -1 -99 -17z m185
-285 c0 -35 -3 -72 -6 -81 -9 -23 -57 -45 -99 -45 -74 0 -121 88 -79 148 22
32 48 41 122 41 l62 1 0 -64z"/>
<path d="M1740 634 l-31 -27 -15 22 c-8 11 -19 21 -25 21 -5 0 -9 -93 -9 -230
l0 -230 25 0 25 0 0 170 c0 220 9 240 101 240 37 0 39 2 39 30 0 28 -2 30 -39
30 -28 0 -49 -8 -71 -26z"/>
<path d="M2007 635 c-36 -24 -37 -24 -47 -5 -25 47 -30 14 -30 -210 l0 -230
25 0 25 0 0 180 c0 179 0 181 25 205 18 19 35 25 70 25 43 0 45 1 45 30 0 28
-2 30 -39 30 -24 0 -51 -9 -74 -25z"/>
<path d="M2463 639 c-49 -31 -63 -80 -63 -222 0 -135 11 -173 62 -210 38 -28
123 -33 168 -10 42 22 80 76 80 114 0 24 -4 29 -25 29 -20 0 -25 -5 -25 -26 0
-39 -50 -84 -94 -84 -81 0 -120 47 -114 138 l3 47 128 3 127 3 0 65 c0 123
-45 174 -155 174 -43 0 -69 -6 -92 -21z m152 -35 c24 -10 45 -58 45 -104 l0
-41 -102 3 -103 3 1 47 c0 67 30 98 95 98 26 0 55 -3 64 -6z"/>
<path d="M2906 635 c-36 -24 -36 -24 -48 -5 -7 11 -16 20 -20 20 -5 0 -8 -103
-8 -230 l0 -230 25 0 25 0 0 179 c0 165 2 180 21 205 17 21 29 26 65 26 42 0
44 1 44 30 0 27 -3 30 -34 30 -19 0 -49 -11 -70 -25z"/>
<path d="M3794 651 c-11 -5 -33 -23 -47 -41 -27 -31 -27 -33 -27 -183 0 -131
3 -156 19 -183 52 -86 208 -85 262 2 19 31 20 46 17 189 l-3 155 -32 32 c-30
29 -39 33 -100 35 -38 2 -77 -1 -89 -6z m151 -66 c24 -23 25 -29 25 -162 -1
-144 -5 -159 -47 -181 -45 -25 -132 -5 -147 33 -3 9 -6 77 -6 151 0 130 1 136
25 159 19 20 34 25 75 25 41 0 56 -5 75 -25z"/>
<path d="M4908 636 c-37 -25 -38 -25 -48 -6 -25 47 -30 14 -30 -210 l0 -230
25 0 25 0 0 185 c0 184 0 186 25 210 20 21 34 25 79 25 47 0 57 -4 75 -26 20
-25 21 -40 21 -210 l0 -184 25 0 25 0 0 195 0 195 -34 37 c-30 33 -39 37 -92
41 -51 3 -64 0 -96 -22z"/>
<path d="M5656 635 c-36 -24 -36 -24 -48 -5 -7 11 -16 20 -20 20 -5 0 -8 -103
-8 -230 l0 -230 25 0 25 0 0 179 c0 165 2 180 21 205 17 21 29 26 65 26 42 0
44 1 44 30 0 27 -3 30 -34 30 -19 0 -49 -11 -70 -25z"/>
<path d="M2220 420 l0 -230 25 0 25 0 0 230 0 230 -25 0 -25 0 0 -230z"/>
<path d="M5800 647 c0 -3 32 -93 70 -201 39 -108 70 -205 70 -215 0 -10 -16
-62 -35 -115 -19 -53 -35 -99 -35 -101 0 -3 11 -5 23 -5 22 0 32 21 122 273
54 149 106 293 116 320 l19 47 -28 0 c-26 0 -29 -6 -87 -175 -44 -130 -61
-171 -68 -159 -5 9 -33 87 -61 173 -49 146 -54 156 -79 159 -15 2 -27 1 -27
-1z"/>
</g>
</svg>
